<svg width="64" height="64" viewBox="0 0 64 64" fill="none" xmlns="http://www.w3.org/2000/svg">
<path d="M25.3128 54.9531C25.0316 54.9532 24.7814 54.9597 24.5316 54.952C24.0126 54.9359 23.7193 54.6427 23.7307 54.1208C23.7775 51.9962 24.6768 50.2709 26.2465 48.8817C27.3017 47.9479 28.5513 47.4035 29.938 47.1782C30.2442 47.1285 30.5582 47.1166 30.8692 47.108C31.3526 47.0947 31.3531 47.1022 31.3531 46.6034C31.3533 42.6035 31.3535 38.6035 31.3535 34.6035C31.3534 28.7911 31.3533 22.9786 31.3531 17.1662C31.3531 16.7086 31.3529 16.7079 30.8943 16.7078C27.561 16.7075 24.2277 16.7073 20.8944 16.7082C20.7833 16.7082 20.6672 16.688 20.5409 16.7587C20.6379 17.1906 20.8321 17.5817 20.9929 17.9824C22.8145 22.5206 24.6411 27.0568 26.4668 31.5934C26.7387 32.2689 27.0076 32.9458 27.2881 33.6178C27.4184 33.93 27.4386 34.2435 27.3447 34.5619C26.4471 37.6085 24.4078 39.4984 21.3672 40.2573C17.6055 41.1962 13.7596 39.32 12.0809 35.8207C11.8598 35.3596 11.7077 34.875 11.5987 34.3749C11.5448 34.1275 11.5895 33.9031 11.6786 33.677C13.786 28.3338 15.8934 22.9906 17.9989 17.6466C18.224 17.0755 18.4402 16.5009 18.6565 15.9264C18.8718 15.3545 19.0466 15.2273 19.6474 15.2273C23.387 15.2272 27.1265 15.2277 30.8661 15.2281C31.3526 15.2281 31.3237 15.226 31.3601 14.7602C31.4122 14.0929 31.3186 13.632 30.5944 13.2702C29.5634 12.755 29.1341 11.497 29.361 10.3377C29.5788 9.22433 30.3942 8.39066 31.5728 8.19513C33.3623 7.89824 34.7916 9.24186 34.84 10.8467C34.8779 12.1036 34.0539 13.2096 33.0294 13.5766C32.8488 13.6413 32.7599 13.7379 32.7684 13.9412C32.7821 14.2739 32.781 14.608 32.769 14.9409C32.7609 15.1626 32.8557 15.2441 33.0659 15.2284C33.1592 15.2214 33.2533 15.2275 33.3471 15.2275C37.0554 15.2276 40.7637 15.2275 44.472 15.2281C45.0745 15.2281 45.2449 15.3539 45.4691 15.9214C47.7809 21.7752 50.0917 27.6294 52.4137 33.4791C52.5844 33.9092 52.6168 34.3125 52.4794 34.7502C51.6477 37.3989 49.8731 39.1408 47.2883 40.0489C43.1881 41.4894 38.5499 39.3239 37.0012 35.2916C36.7306 34.5872 36.6973 33.9348 37.002 33.1915C39.2004 27.8286 41.3543 22.4474 43.5199 17.0711C43.5611 16.9689 43.6362 16.8716 43.6103 16.7467C43.5035 16.6777 43.3861 16.7093 43.2756 16.7093C39.911 16.707 36.5465 16.7069 33.1819 16.707C32.7728 16.707 32.772 16.7082 32.7719 17.1241C32.7718 26.9886 32.7729 36.8531 32.7661 46.7176C32.7659 47.011 32.838 47.1088 33.1461 47.1113C36.586 47.1389 39.5122 49.4958 40.2904 52.8497C40.3868 53.2652 40.4346 53.689 40.4529 54.1129C40.4749 54.6244 40.1701 54.928 39.6559 54.9523C39.604 54.9547 39.5518 54.9523 39.4997 54.9523C34.7811 54.9526 30.0625 54.9528 25.3128 54.9531ZM23.7812 33.542C24.3979 33.542 25.0145 33.542 25.6908 33.542C23.5974 28.3318 21.5359 23.2011 19.4745 18.0704C19.4462 18.0764 19.4179 18.0824 19.3895 18.0883C17.369 23.2198 15.3484 28.3512 13.3045 33.542C16.8301 33.542 20.2744 33.542 23.7812 33.542ZM45.7283 20.6062C45.3933 19.7656 45.0582 18.925 44.6968 18.0184C42.6012 23.2285 40.5387 28.3563 38.4659 33.5095C42.6268 33.5095 46.7199 33.5095 50.8564 33.5095C49.1413 29.1945 47.4435 24.9229 45.7283 20.6062ZM25.9952 51.4001C25.6801 51.9078 25.4526 52.4539 25.2908 53.0277C25.1638 53.4781 25.1666 53.4795 25.6267 53.4795C29.9488 53.4801 34.2709 53.4808 38.5931 53.4788C38.7012 53.4788 38.821 53.5198 38.9354 53.4166C38.7917 52.6131 38.4887 51.8685 38.0181 51.1954C37.0638 49.8307 35.7914 48.9462 34.1364 48.6398C33.2174 48.4697 32.29 48.5471 31.3658 48.5232C30.9476 48.5123 30.5311 48.536 30.1224 48.6103C28.3577 48.9311 26.999 49.8659 25.9952 51.4001ZM39.4069 35.0216C39.1212 35.0398 38.8305 34.9821 38.5473 35.0593C38.6353 35.6729 39.5648 36.8781 40.45 37.5626C41.951 38.7232 43.6318 39.175 45.5349 38.9944C47.57 38.8012 50.7077 36.4946 50.7439 35.0216C46.9852 35.0216 43.2272 35.0216 39.4069 35.0216ZM19.5275 39.0407C22.6825 39.0479 25.0651 36.6829 25.6119 35.0535C21.5473 35.0535 17.4846 35.0535 13.4118 35.0535C14.0046 36.9314 16.5331 39.0649 19.5275 39.0407ZM30.8715 11.4618C30.9298 11.5597 30.9793 11.6643 31.048 11.7542C31.3976 12.2119 32.0039 12.384 32.5173 12.1772C33.0418 11.9661 33.4503 11.3884 33.3957 10.8979C33.3323 10.3279 33.0544 9.89858 32.4949 9.7026C32.001 9.52963 31.5373 9.62872 31.1665 9.98575C30.7567 10.3805 30.6664 10.8765 30.8715 11.4618Z" fill="#1C5D74"/>
</svg>
